<svg xmlns="http://www.w3.org/2000/svg" width="1000" height="360">
<rect width="100%" height="100%" fill="white"/>
<text x="20" y="28" font-size="22" font-family="Arial">AstraSim-FSW Mode Timeline</text>
<line x1="60" y1="30" x2="960" y2="30" stroke="#ddd"/><text x="10" y="35" font-size="12">BOOT</text><line x1="60" y1="80" x2="960" y2="80" stroke="#ddd"/><text x="10" y="85" font-size="12">NOMINAL</text><line x1="60" y1="130" x2="960" y2="130" stroke="#ddd"/><text x="10" y="135" font-size="12">DEGRADED_PAYLOAD</text><line x1="60" y1="180" x2="960" y2="180" stroke="#ddd"/><text x="10" y="185" font-size="12">SAFE</text><line x1="60" y1="230" x2="960" y2="230" stroke="#ddd"/><text x="10" y="235" font-size="12">RECOVERY</text>
<polyline points="70.0,30 77.4,30 84.8,30 92.2,30 99.6,30 107.0,30 114.4,80 121.8,80 129.2,80 136.6,80 143.9,80 151.3,80 158.7,80 166.1,80 173.5,80 180.9,80 188.3,80 195.7,80 203.1,80 210.5,80 217.9,80 225.3,130 232.7,130 240.1,130 247.5,130 254.9,130 262.3,130 269.7,130 277.1,130 284.5,130 291.8,130 299.2,130 306.6,130 314.0,130 321.4,130 328.8,130 336.2,130 343.6,130 351.0,130 358.4,130 365.8,130 373.2,130 380.6,130 388.0,130 395.4,130 402.8,130 410.2,130 417.6,130 425.0,130 432.4,130 439.7,130 447.1,130 454.5,80 461.9,80 469.3,80 476.7,80 484.1,80 491.5,80 498.9,80 506.3,80 513.7,80 521.1,80 528.5,80 535.9,80 543.3,80 550.7,80 558.1,80 565.5,80 572.9,80 580.3,80 587.6,80 595.0,80 602.4,80 609.8,80 617.2,80 624.6,80 632.0,80 639.4,80 646.8,80 654.2,80 661.6,80 669.0,80 676.4,80 683.8,80 691.2,80 698.6,80 706.0,80 713.4,80 720.8,80 728.2,80 735.5,80 742.9,80 750.3,80 757.7,80 765.1,80 772.5,80 779.9,80 787.3,80 794.7,80 802.1,80 809.5,80 816.9,80 824.3,80 831.7,80 839.1,80 846.5,80 853.9,80 861.3,80 868.7,80 876.1,80 883.4,80 890.8,80 898.2,80 905.6,80 913.0,80 920.4,80 927.8,80 935.2,80 942.6,80 950.0,80" fill="none" stroke="#2563eb" stroke-width="4"/>
<text x="70" y="335" font-size="12">Telemetry sequence</text>
</svg>
